<svg t="1584951131878" class="icon" viewBox="0 0 1024 1024" version="1.1" xmlns="http://www.w3.org/2000/svg" p-id="2677" width="200" height="200"><path d="M885.247 477.597H132c-17.673 0-32-14.327-32-32s14.327-32 32-32h753.247c17.673 0 32 14.327 32 32s-14.327 32-32 32z" fill="#ffffff" p-id="2678"></path><path d="M893.366 477.392c-8.189 0-16.379-3.124-22.627-9.373L709.954 307.235c-12.497-12.497-12.497-32.758 0-45.255 12.496-12.497 32.758-12.497 45.254 0l160.785 160.785c12.497 12.497 12.497 32.758 0 45.255-6.248 6.248-14.437 9.372-22.627 9.372zM893.366 609.607H140.119c-17.673 0-32-14.327-32-32s14.327-32 32-32h753.248c17.673 0 32 14.327 32 32s-14.328 32-32.001 32z" fill="#ffffff" p-id="2679"></path><path d="M292.784 770.597c-8.189 0-16.379-3.124-22.627-9.373L109.373 600.439c-12.497-12.496-12.497-32.758 0-45.254 12.497-12.498 32.758-12.498 45.255 0L315.412 715.97c12.497 12.496 12.497 32.758 0 45.254-6.249 6.249-14.438 9.373-22.628 9.373z" fill="#ffffff" p-id="2680"></path></svg>